{
	"asset":{
		"generator":"Khronos glTF Blender I/O v5.0.21",
		"version":"2.0"
	},
	"scene":0,
	"scenes":[
		{
			"name":"Scene",
			"nodes":[
				0
			]
		}
	],
	"nodes":[
		{
			"mesh":0,
			"name":"Tree 1",
			"scale":[
				34.23691940307617,
				34.23691940307617,
				34.23691940307617
			],
			"translation":[
				-0.5956228375434875,
				-0.33850520849227905,
				-0.5353783369064331
			]
		}
	],
	"materials":[
		{
			"doubleSided":true,
			"name":"Tree",
			"pbrMetallicRoughness":{
				"baseColorFactor":[
					0.04156691953539848,
					0.4670785665512085,
					0.10362593084573746,
					1
				],
				"metallicFactor":0
			}
		},
		{
			"doubleSided":true,
			"name":"Trunk",
			"pbrMetallicRoughness":{
				"baseColorFactor":[
					0.1568453460931778,
					0.04940622299909592,
					0.0028585775289684534,
					1
				],
				"metallicFactor":0
			}
		}
	],
	"meshes":[
		{
			"name":"Cube.002",
			"primitives":[
				{
					"attributes":{
						"POSITION":0,
						"NORMAL":1,
						"TEXCOORD_0":2
					},
					"indices":3,
					"material":0
				},
				{
					"attributes":{
						"POSITION":4,
						"NORMAL":5,
						"TEXCOORD_0":6
					},
					"indices":7,
					"material":1
				}
			]
		}
	],
	"accessors":[
		{
			"bufferView":0,
			"componentType":5126,
			"count":265,
			"max":[
				0.03936761990189552,
				0.17412225902080536,
				0.038865890353918076
			],
			"min":[
				-0.039661526679992676,
				0.024770254269242287,
				-0.03780399635434151
			],
			"type":"VEC3"
		},
		{
			"bufferView":1,
			"componentType":5126,
			"count":265,
			"type":"VEC3"
		},
		{
			"bufferView":2,
			"componentType":5126,
			"count":265,
			"type":"VEC2"
		},
		{
			"bufferView":3,
			"componentType":5123,
			"count":870,
			"type":"SCALAR"
		},
		{
			"bufferView":4,
			"componentType":5126,
			"count":35,
			"max":[
				0.009441699832677841,
				0.06011278182268143,
				0.009817847050726414
			],
			"min":[
				-0.00982457585632801,
				-0.00021417494281195104,
				-0.009589503519237041
			],
			"type":"VEC3"
		},
		{
			"bufferView":5,
			"componentType":5126,
			"count":35,
			"type":"VEC3"
		},
		{
			"bufferView":6,
			"componentType":5126,
			"count":35,
			"type":"VEC2"
		},
		{
			"bufferView":7,
			"componentType":5123,
			"count":132,
			"type":"SCALAR"
		}
	],
	"bufferViews":[
		{
			"buffer":0,
			"byteLength":3180,
			"byteOffset":0,
			"target":34962
		},
		{
			"buffer":0,
			"byteLength":3180,
			"byteOffset":3180,
			"target":34962
		},
		{
			"buffer":0,
			"byteLength":2120,
			"byteOffset":6360,
			"target":34962
		},
		{
			"buffer":0,
			"byteLength":1740,
			"byteOffset":8480,
			"target":34963
		},
		{
			"buffer":0,
			"byteLength":420,
			"byteOffset":10220,
			"target":34962
		},
		{
			"buffer":0,
			"byteLength":420,
			"byteOffset":10640,
			"target":34962
		},
		{
			"buffer":0,
			"byteLength":280,
			"byteOffset":11060,
			"target":34962
		},
		{
			"buffer":0,
			"byteLength":264,
			"byteOffset":11340,
			"target":34963
		}
	],
	"buffers":[
		{
			"byteLength":11604,
			"uri":"tree.bin"
		}
	]
}
